<?xml version="1.0" encoding="utf-8"?>
<!-- Generator: Adobe Illustrator 23.0.2, SVG Export Plug-In . SVG Version: 6.00 Build 0)  -->
<svg version="1.1" xmlns="http://www.w3.org/2000/svg" xmlns:xlink="http://www.w3.org/1999/xlink" x="0px" y="0px"
	 viewBox="0 0 500 500" style="enable-background:new 0 0 500 500;" xml:space="preserve">
<style type="text/css">
	._x005B_Default_x005D_{fill:#FFFFFF;stroke:#000000;stroke-miterlimit:10;}
	.Drop_x0020_Shadow{fill:none;}
	.Thick_x0020_Blue_x0020_Neon{fill:none;stroke:#0073BC;stroke-width:10;stroke-linecap:round;stroke-linejoin:round;}
	.Illuminating_x0020_Aqua{fill:url(#SVGID_1_);stroke:#FFFFFF;stroke-width:0.25;stroke-miterlimit:1;}
	.Black_x0020_Highlight{fill:url(#SVGID_2_);stroke:#FFFFFF;stroke-width:0.3629;stroke-miterlimit:1;}
	.Bugaboo_GS{fill-rule:evenodd;clip-rule:evenodd;fill:#FFDD00;}
	.st0{fill:#F2F2F2;}
</style>
<linearGradient id="SVGID_1_" gradientUnits="userSpaceOnUse" x1="0" y1="0" x2="6.123234e-17" y2="-1">
	<stop  offset="0" style="stop-color:#1D59F4"/>
	<stop  offset="0.618" style="stop-color:#2D65EE"/>
	<stop  offset="0.6292" style="stop-color:#3864F3"/>
	<stop  offset="0.9831" style="stop-color:#00DDFC"/>
</linearGradient>
<linearGradient id="SVGID_2_" gradientUnits="userSpaceOnUse" x1="0" y1="0" x2="6.123234e-17" y2="-1">
	<stop  offset="0" style="stop-color:#060606"/>
	<stop  offset="0.618" style="stop-color:#000000"/>
	<stop  offset="0.6292" style="stop-color:#000000"/>
	<stop  offset="0.9831" style="stop-color:#000000"/>
</linearGradient>
<g id="BACKGROUND">
</g>
<g id="OBJECTS">
	<g>
		<g>
			<g>
				<path d="M487.19,500H12.81c0,0,35.07-140.75,44.81-156.49c7.7-12.46,84.09-29.99,119.44-40.99c9.32-2.9,15.79-5.34,17.4-7.12
					c0.19-0.21,0.38-0.44,0.54-0.68c5.38-7.25,5.95-29.08,5.9-39.57h98.17c-0.05,10.85,0.56,33.8,6.43,40.25
					c0.19,0.22,0.48,0.44,0.82,0.68c2.74,1.91,9.94,4.44,19.68,7.38c36.53,11.05,108.87,27.95,116.36,40.05
					C452.12,359.25,487.19,500,487.19,500z"/>
				<g>
					<path d="M151.09,175.49c0,0-5.77-54.26-3.51-60.53c2.26-6.26,15.37-59.7,51.09-71.39l-14.02-3.76c0,0,23.06-7.93,44.76-7.51
						c0,0-9.5-6.68-7.69-6.68c1.81,0,54.26,4.17,68.73,18.79l-9.04-12.94c0,0,33.46,14.19,40.24,37.16l0.45-8.35
						c0,0,21.25,37.57,23.51,64.71c2.26,27.14-2.58,40.15-2.58,40.15S151.54,175.91,151.09,175.49z"/>
					<path d="M165.46,145.02v47.1c0,10.73,1.96,21.38,5.86,31.49c6.14,15.9,17.6,38.83,36.55,54.51
						c11.5,9.51,26.52,14.67,42.01,14.67l0,0c15.49,0,30.51-5.16,42.01-14.67c18.96-15.68,30.41-38.61,36.55-54.51
						c3.91-10.11,5.86-20.76,5.86-31.49v-47.1H165.46z"/>
					<g>
						<path d="M161.51,159.97c0,0-15.04-4.19-15.04,5.87c0,10.06,3.65,15.62,1.67,21.56c-1.98,5.94,2.97,20.11,18.32,20.11
							S161.51,159.97,161.51,159.97z"/>
						<path d="M333.14,159.97c0,0,14.29-3.5,14.29,6.55s-2.91,14.93-0.93,20.87c1.98,5.94-2.97,20.11-18.32,20.11
							S333.14,159.97,333.14,159.97z"/>
					</g>
				</g>
				<path class="st0" d="M326.01,303.46L306.47,500H196.71l-19.64-197.48c9.32-2.9,15.79-5.34,17.4-7.12
					c0.19-0.21,0.38-0.44,0.54-0.68l56.58,41.68l54.74-40.31C309.07,297.99,316.27,300.52,326.01,303.46z"/>
				<polygon points="206.51,500 228.3,385.98 219.67,361.88 251.59,341.97 283.52,361.88 274.88,385.98 296.68,500 				"/>
			</g>
		</g>
	</g>
</g>
<g id="DESIGNED_BY_FREEPIK">
	<g>
	</g>
	<g>
	</g>
	<g>
	</g>
	<g>
	</g>
	<g>
	</g>
	<g>
	</g>
	<g>
	</g>
	<g>
	</g>
	<g>
	</g>
	<g>
	</g>
	<g>
	</g>
</g>
</svg>
