<?xml version="1.0" encoding="utf-8"?>
<!-- Generator: Adobe Illustrator 23.0.2, SVG Export Plug-In . SVG Version: 6.00 Build 0)  -->
<svg version="1.1" id="Calque_1" xmlns="http://www.w3.org/2000/svg" xmlns:xlink="http://www.w3.org/1999/xlink" x="0px" y="0px"
	 viewBox="0 0 56.69 56.69" style="enable-background:new 0 0 56.69 56.69;" xml:space="preserve">
<style type="text/css">
	.Ombre_x0020_portée{fill:none;}
	.Arrondis_x0020_2 pt{fill:#FFFFFF;stroke:#000000;stroke-miterlimit:10;}
	.Miroir_x0020_dynamique X{fill:none;}
	.Biseau_x0020_adouci{fill:url(#SVGID_1_);}
	.Crépuscule{fill:#FFFFFF;}
	.Feuillage_GS{fill:#FFDD00;}
	.Pompadour_GS{fill-rule:evenodd;clip-rule:evenodd;fill:#51AEE2;}
</style>
<linearGradient id="SVGID_1_" gradientUnits="userSpaceOnUse" x1="0" y1="0" x2="0.7071" y2="0.7071">
	<stop  offset="0" style="stop-color:#E6E6EB"/>
	<stop  offset="0.1738" style="stop-color:#E2E2E6"/>
	<stop  offset="0.352" style="stop-color:#D5D4D8"/>
	<stop  offset="0.5323" style="stop-color:#C0BFC2"/>
	<stop  offset="0.7139" style="stop-color:#A4A2A4"/>
	<stop  offset="0.8949" style="stop-color:#828282"/>
	<stop  offset="1" style="stop-color:#6B6E6E"/>
</linearGradient>
<g>
	<path d="M49.32,11.12c2,0.8,1.5,2.05,0.8,2.75c-10.3-4-17.75,8.45-22.95,15.5c4.85,6.55,12.35,18.85,22.25,18.2
		c0.8,0.7,0.8,1.85-1.1,2.2c-8.1,1.5-19.25-8.7-23.7-15.8c-1.4,3.25-6.35,11.2-9.75,12.65c-2,0.85-3.45-0.4-3.85-2.25
		c8.1-5.55,13.45-22.75,15.4-32.05c-6.35-0.65-17.3,9.1-13.65,16.7c-2.7,1.45-5.85,0.95-6.15-2.9c-1-13.55,28.45-26.25,23.85-8.4
		C35.67,12.27,42.77,8.47,49.32,11.12z"/>
</g>

</svg>
